<?xml version="1.0" encoding="UTF-8"?>
<svg width="1e3" height="112.23" version="1.1" viewBox="0 0 264.58 29.695" xmlns="http://www.w3.org/2000/svg">
 <defs>
  <clipPath id="clipPath851">
   <path d="m435.53 11.541h159.74v16.777h-159.74z"/>
  </clipPath>
 </defs>
 <g transform="translate(-64.049 -102.44)">
  <path d="m256.47 105.69v26.445h37.12v-11.772h35.043v-14.673z" fill="#ce0f68"/>
  <g transform="matrix(1.7701 0 0 -1.7701 -706.88 152.57)">
   <g clip-path="url(#clipPath851)">
    <g transform="translate(435.53 15.286)">
     <path d="m0 0 1.835 1.524c0.591-0.902 1.71-1.4 2.768-1.4 0.699 0 1.803 0.203 1.803 1.074 0 0.684-0.699 0.995-1.477 1.29-1.555 0.56-3.406 1.182-3.406 3.265 0 2.349 1.851 3.701 4.23 3.701 1.586 0 3.157-0.419 4.121-1.85l-1.742-1.368c-0.481 0.668-1.415 1.088-2.239 1.088-0.777 0-1.71-0.218-1.71-1.073 0-0.762 1.244-1.057 2.13-1.43 1.322-0.482 2.861-1.275 2.861-3.08 0-2.658-2.301-3.747-4.602-3.747-1.742 0-3.468 0.467-4.572 2.006" fill="#ce0f68"/>
    </g>
    <g transform="translate(449.45 22.377)">
     <path d="m0 0h-3.141l0.389 2.177h9.019l-0.389-2.177h-3.141l-1.571-8.91h-2.736z" fill="#ce0f68"/>
    </g>
    <g transform="translate(458.98 24.57)">
     <path d="m0 0h2.924l1.896-11.103h-2.721l-0.311 2.084h-3.965l-1.057-2.084h-2.644zm1.509-6.889-0.591 4.168h-0.047l-2.037-4.168z" fill="#ce0f68"/>
    </g>
    <g transform="translate(467.1 24.554)">
     <path d="m0 0h4.665c1.866 0 3.53-0.933 3.53-3.141 0-1.757-1.089-3.172-2.752-3.592l1.695-4.354h-2.893l-1.368 3.934h-1.43l-0.685-3.934h-2.721zm3.546-5.132c1.088 0 1.943 0.607 1.943 1.726 0 0.949-0.653 1.276-1.415 1.276h-1.741l-0.529-3.002z" fill="#ce0f68"/>
    </g>
    <g transform="translate(476.39 16.5)">
     <path d="m0 0c0 0.28 0.031 0.559 0.078 0.824 0.108 0.607 0.466 2.628 0.559 3.219 0.483 2.644 2.8 4.198 5.396 4.198 2.099 0 4.075-0.979 4.075-3.327 0-0.295-0.032-0.576-0.079-0.856-0.108-0.544-0.45-2.519-0.544-3.078-0.482-2.675-2.798-4.199-5.411-4.199-2.068 0-4.074 0.855-4.074 3.219m6.733 0.886c0.109 0.591 0.482 2.706 0.591 3.297 0.016 0.124 0.031 0.264 0.031 0.389 0 0.979-0.793 1.446-1.695 1.446-1.181 0-2.052-0.684-2.255-1.866-0.109-0.591-0.482-2.675-0.591-3.266-0.015-0.14-0.031-0.264-0.031-0.404 0-1.011 0.778-1.462 1.696-1.462 1.15 0 2.052 0.716 2.254 1.866" fill="#ce0f68"/>
    </g>
    <g transform="translate(486.66 15.286)">
     <path d="m0 0 1.835 1.524c0.591-0.902 1.711-1.4 2.768-1.4 0.7 0 1.804 0.203 1.804 1.074 0 0.684-0.7 0.995-1.477 1.29-1.556 0.56-3.406 1.182-3.406 3.265 0 2.349 1.85 3.701 4.229 3.701 1.587 0 3.158-0.419 4.122-1.85l-1.742-1.368c-0.482 0.668-1.416 1.088-2.24 1.088-0.777 0-1.71-0.218-1.71-1.073 0-0.762 1.244-1.057 2.131-1.43 1.321-0.482 2.861-1.275 2.861-3.08 0-2.658-2.302-3.747-4.603-3.747-1.742 0-3.468 0.467-4.572 2.006" fill="#ce0f68"/>
    </g>
    <g transform="translate(500.58 22.377)">
     <path d="m0 0h-3.141l0.389 2.177h9.019l-0.389-2.177h-3.141l-1.571-8.91h-2.736z" fill="#ce0f68"/>
    </g>
    <g transform="translate(506.47 16.5)">
     <path d="m0 0c0 0.28 0.031 0.559 0.078 0.824 0.108 0.607 0.466 2.628 0.559 3.219 0.483 2.644 2.8 4.198 5.396 4.198 2.099 0 4.074-0.979 4.074-3.327 0-0.295-0.031-0.576-0.078-0.856-0.108-0.544-0.45-2.519-0.543-3.078-0.483-2.675-2.799-4.199-5.412-4.199-2.068 0-4.074 0.855-4.074 3.219m6.733 0.886c0.109 0.591 0.482 2.706 0.591 3.297 0.016 0.124 0.031 0.264 0.031 0.389 0 0.979-0.793 1.446-1.695 1.446-1.182 0-2.052-0.684-2.255-1.866-0.109-0.591-0.482-2.675-0.591-3.266-0.015-0.14-0.031-0.264-0.031-0.404 0-1.011 0.778-1.462 1.695-1.462 1.151 0 2.053 0.716 2.255 1.866" fill="#ce0f68"/>
    </g>
    <g transform="translate(517.74 24.554)">
     <path d="m0 0h2.737l0.793-7.837h0.077l3.608 7.837h2.66l-5.537-11.103h-2.783z" fill="#ce0f68"/>
    </g>
    <g transform="translate(528.76 24.554)">
     <path d="m0 0h8.102l-0.389-2.208h-5.38l-0.389-2.177h4.525l-0.389-2.208h-4.525l-0.404-2.27h5.411l-0.388-2.224h-8.133zm5.178 3.763h2.535l-2.659-2.783h-1.757z" fill="#ce0f68"/>
    </g>
    <g transform="translate(546.48 20.614)">
     <path d="m0 0 0.681 0.566c0.219-0.335 0.634-0.52 1.027-0.52 0.259 0 0.669 0.075 0.669 0.398 0 0.254-0.259 0.369-0.548 0.479-0.577 0.208-1.264 0.439-1.264 1.212 0 0.871 0.687 1.373 1.57 1.373 0.588 0 1.171-0.156 1.529-0.687l-0.647-0.507c-0.178 0.248-0.524 0.404-0.83 0.404-0.289 0-0.635-0.081-0.635-0.399 0-0.282 0.462-0.392 0.79-0.53 0.491-0.179 1.062-0.473 1.062-1.143 0-0.986-0.854-1.39-1.708-1.39-0.646 0-1.286 0.173-1.696 0.744" fill="#ffed00"/>
    </g>
    <g transform="translate(551.72 23.245)">
     <path d="m0 0h-1.166l0.145 0.808h3.346l-0.144-0.808h-1.166l-0.582-3.306h-1.016z" fill="#ffed00"/>
    </g>
    <g transform="translate(555.25 24.059)">
     <path d="m0 0h1.085l0.704-4.12h-1.01l-0.115 0.773h-1.472l-0.392-0.773h-0.981zm0.56-2.556-0.22 1.546h-0.017l-0.756-1.546z" fill="#ffed00"/>
    </g>
    <g transform="translate(558.19 24.053)">
     <path d="m0 0h1.731c0.692 0 1.31-0.346 1.31-1.166 0-0.652-0.404-1.176-1.021-1.332l0.629-1.616h-1.074l-0.507 1.46h-0.531l-0.254-1.46h-1.01zm1.316-1.904c0.404 0 0.721 0.225 0.721 0.64 0 0.352-0.242 0.473-0.525 0.473h-0.646l-0.197-1.113z" fill="#ffed00"/>
    </g>
    <g transform="translate(563.26 24.059)">
     <path d="m0 0h1.085l0.704-4.12h-1.01l-0.115 0.773h-1.472l-0.392-0.773h-0.981zm0.56-2.556-0.22 1.546h-0.017l-0.756-1.546zm0.409 3.946h0.941l-0.987-1.032h-0.652z" fill="#ffed00"/>
    </g>
    <g transform="translate(566.2 24.053)">
     <path d="m0 0h1.241l0.456-2.158h0.017l1.206 2.158h1.269l-0.727-4.114h-0.935l0.467 2.631h-0.028l-1.148-2.071h-0.699l-0.432 2.065h-0.023l-0.462-2.625h-0.929z" fill="#ffed00"/>
    </g>
    <g transform="translate(575.06 20.614)">
     <path d="m0 0 0.681 0.566c0.219-0.335 0.634-0.52 1.027-0.52 0.259 0 0.669 0.075 0.669 0.398 0 0.254-0.259 0.369-0.548 0.479-0.577 0.208-1.264 0.439-1.264 1.212 0 0.871 0.687 1.373 1.57 1.373 0.588 0 1.171-0.156 1.529-0.687l-0.647-0.507c-0.178 0.248-0.524 0.404-0.83 0.404-0.289 0-0.635-0.081-0.635-0.399 0-0.282 0.462-0.392 0.79-0.53 0.491-0.179 1.062-0.473 1.062-1.143 0-0.986-0.854-1.39-1.708-1.39-0.646 0-1.286 0.173-1.696 0.744" fill="#ffed00"/>
    </g>
    <g transform="translate(579.58 24.053)">
     <path d="m0 0h3.006l-0.144-0.819h-1.996l-0.145-0.808h1.679l-0.144-0.819h-1.679l-0.15-0.843h2.008l-0.144-0.825h-3.018z" fill="#ffed00"/>
    </g>
    <g transform="translate(546.74 15.2)">
     <path d="m0 0c0 0.104 0.012 0.208 0.029 0.306 0.04 0.225 0.173 0.975 0.208 1.194 0.178 0.981 1.038 1.558 2.002 1.558 0.778 0 1.511-0.363 1.511-1.235 0-0.109-0.011-0.213-0.028-0.317-0.041-0.202-0.168-0.935-0.202-1.143-0.179-0.992-1.039-1.557-2.008-1.557-0.768 0-1.512 0.317-1.512 1.194m2.498 0.329c0.041 0.219 0.179 1.004 0.219 1.223 6e-3 0.046 0.012 0.098 0.012 0.144 0 0.364-0.294 0.537-0.629 0.537-0.438 0-0.761-0.254-0.836-0.692-0.041-0.22-0.179-0.993-0.22-1.212-6e-3 -0.052-0.011-0.098-0.011-0.15 0-0.375 0.288-0.543 0.629-0.543 0.427 0 0.761 0.266 0.836 0.693" fill="#ffed00"/>
    </g>
    <g transform="translate(552.51 18.189)">
     <path d="m0 0h1.01l-0.583-3.289h1.956l-0.144-0.825h-2.966z" fill="#ffed00"/>
    </g>
    <g transform="translate(555.98 18.189)">
     <path d="m0 0h1.01l-0.727-4.114h-1.01z" fill="#ffed00"/>
    </g>
    <g transform="translate(557.72 18.189)">
     <path d="m0 0h1.702c0.738 0 1.437-0.375 1.437-1.2 0-0.098-6e-3 -0.196-0.023-0.289-0.069-0.392-0.15-0.848-0.219-1.234-0.174-0.964-0.97-1.391-1.91-1.391h-1.714zm1.068-3.289c0.409 0 0.75 0.231 0.825 0.64 0.034 0.203 0.167 0.97 0.202 1.166 5e-3 0.04 0.017 0.087 0.017 0.127 0 0.364-0.306 0.531-0.641 0.531h-0.611l-0.433-2.464z" fill="#ffed00"/>
    </g>
    <g transform="translate(561.71 18.189)">
     <path d="m0 0h1.01l-0.727-4.114h-1.01z" fill="#ffed00"/>
    </g>
    <g transform="translate(533.86 28.223)">
     <path d="m0 0-1.882-2.783h1.758l2.658 2.783z" fill="#ce0f68"/>
    </g>
    <g transform="translate(571.03 24.047)">
     <path d="m0 0h3.006l-0.144-0.819h-1.996l-0.145-0.808h1.679l-0.144-0.819h-1.679l-0.15-0.843h2.008l-0.144-0.825h-3.018z" fill="#fe0"/>
    </g>
   </g>
  </g>
 </g>
</svg>
